<?xml version="1.0" encoding="UTF-8" standalone="no"?>
<svg width="600" height="300" xmlns="http://www.w3.org/2000/svg">
  <rect width="100%" height="100%" fill="#f8fafc"/>
  
  <!-- Main Container -->
  <rect x="30" y="30" width="540" height="240" rx="8" fill="white" stroke="#e2e8f0" stroke-width="2"/>
  
  <!-- Title -->
  <text x="300" y="60" font-family="Arial, sans-serif" font-size="18" font-weight="bold" text-anchor="middle" fill="#db2777">Cumulative Layout Shift (CLS) Optimization</text>
  
  <!-- Before and After -->
  <text x="150" y="90" font-family="Arial, sans-serif" font-size="16" font-weight="bold" text-anchor="middle" fill="#64748b">Before</text>
  <text x="450" y="90" font-family="Arial, sans-serif" font-size="16" font-weight="bold" text-anchor="middle" fill="#64748b">After</text>
  
  <!-- Before Illustration -->
  <rect x="60" y="110" width="180" height="120" rx="4" fill="#f1f5f9" stroke="#e2e8f0" stroke-width="1"/>
  
  <!-- Website Elements with Layout Shifts (Before) -->
  <rect x="70" y="120" width="160" height="15" rx="2" fill="#94a3b8"/>
  <text x="150" y="131" font-family="Arial, sans-serif" font-size="8" text-anchor="middle" fill="white">Header</text>
  
  <!-- Content shifting down when image loads -->
  <rect x="70" y="140" width="160" height="20" rx="2" fill="#94a3b8">
    <animate attributeName="y" values="140;170;170" dur="2s" repeatCount="indefinite"/>
  </rect>
  <text x="150" y="155" font-family="Arial, sans-serif" font-size="10" text-anchor="middle" fill="white">Content</text>
  
  <!-- Image loading late -->
  <rect x="100" y="140" width="100" height="60" rx="2" fill="#fce7f3" opacity="0">
    <animate attributeName="opacity" values="0;0;1" dur="2s" repeatCount="indefinite"/>
  </rect>
  <text x="150" y="175" font-family="Arial, sans-serif" font-size="10" text-anchor="middle" fill="#db2777" opacity="0">
    <animate attributeName="opacity" values="0;0;1" dur="2s" repeatCount="indefinite"/>
    Image
  </text>
  
  <!-- CLS Score (Before) -->
  <rect x="115" y="210" width="70" height="25" rx="12.5" fill="#ef4444"/>
  <text x="150" y="227" font-family="Arial, sans-serif" font-size="12" font-weight="bold" text-anchor="middle" fill="white">CLS: 0.25</text>
  
  <!-- After Illustration -->
  <rect x="360" y="110" width="180" height="120" rx="4" fill="#f1f5f9" stroke="#e2e8f0" stroke-width="1"/>
  
  <!-- Website Elements with Reserved Space (After) -->
  <rect x="370" y="120" width="160" height="15" rx="2" fill="#94a3b8"/>
  <text x="450" y="131" font-family="Arial, sans-serif" font-size="8" text-anchor="middle" fill="white">Header</text>
  
  <!-- Reserved space for image -->
  <rect x="400" y="140" width="100" height="60" rx="2" fill="#fce7f3" opacity="0.2"/>
  
  <!-- Content stays in place -->
  <rect x="370" y="205" width="160" height="20" rx="2" fill="#94a3b8"/>
  <text x="450" y="220" font-family="Arial, sans-serif" font-size="10" text-anchor="middle" fill="white">Content</text>
  
  <!-- Image loads in reserved space -->
  <rect x="400" y="140" width="100" height="60" rx="2" fill="#fce7f3" opacity="0">
    <animate attributeName="opacity" values="0.2;0.2;1" dur="2s" repeatCount="indefinite"/>
  </rect>
  <text x="450" y="175" font-family="Arial, sans-serif" font-size="10" text-anchor="middle" fill="#db2777" opacity="0">
    <animate attributeName="opacity" values="0;0;1" dur="2s" repeatCount="indefinite"/>
    Image
  </text>
  
  <!-- CLS Score (After) -->
  <rect x="415" y="235" width="70" height="25" rx="12.5" fill="#22c55e"/>
  <text x="450" y="252" font-family="Arial, sans-serif" font-size="12" font-weight="bold" text-anchor="middle" fill="white">CLS: 0.05</text>
  
  <!-- Improvement Arrow -->
  <line x1="250" y1="170" x2="350" y2="170" stroke="#db2777" stroke-width="2" stroke-dasharray="5,5"/>
  <polygon points="350,170 340,165 340,175" fill="#db2777"/>
  
  <!-- Optimization Techniques -->
  <rect x="40" y="250" width="160" height="20" rx="4" fill="#fce7f3"/>
  <text x="120" y="264" font-family="Arial, sans-serif" font-size="10" text-anchor="middle" fill="#db2777">Set Image Dimensions</text>
  
  <rect x="220" y="250" width="160" height="20" rx="4" fill="#fce7f3"/>
  <text x="300" y="264" font-family="Arial, sans-serif" font-size="10" text-anchor="middle" fill="#db2777">Reserve Space for Content</text>
  
  <rect x="400" y="275" width="160" height="20" rx="4" fill="#fce7f3"/>
  <text x="480" y="289" font-family="Arial, sans-serif" font-size="10" text-anchor="middle" fill="#db2777">Optimize Font Loading</text>
</svg> 