<?xml version="1.0" encoding="UTF-8" standalone="no"?>
<svg width="800" height="500" xmlns="http://www.w3.org/2000/svg">
  <!-- Background -->
  <rect width="800" height="500" fill="#f8f9fa" rx="10" ry="10" />
  
  <!-- Title -->
  <text x="400" y="40" font-family="Arial, sans-serif" font-size="24" text-anchor="middle" font-weight="bold" fill="#333">REST API Caching Diagram</text>
  
  <!-- Devices/Components -->
  <!-- Client -->
  <rect x="50" y="120" width="120" height="60" rx="10" ry="10" fill="#6c757d" stroke="#495057" stroke-width="2" />
  <text x="110" y="155" font-family="Arial, sans-serif" font-size="16" text-anchor="middle" fill="white">Client</text>
  
  <!-- API Server -->
  <rect x="340" y="120" width="120" height="60" rx="10" ry="10" fill="#007bff" stroke="#0056b3" stroke-width="2" />
  <text x="400" y="155" font-family="Arial, sans-serif" font-size="16" text-anchor="middle" fill="white">API Server</text>
  
  <!-- Cache -->
  <rect x="340" y="240" width="120" height="60" rx="10" ry="10" fill="#28a745" stroke="#1e7e34" stroke-width="2" />
  <text x="400" y="275" font-family="Arial, sans-serif" font-size="16" text-anchor="middle" fill="white">Cache</text>
  
  <!-- Database -->
  <rect x="630" y="120" width="120" height="60" rx="10" ry="10" fill="#dc3545" stroke="#bd2130" stroke-width="2" />
  <text x="690" y="155" font-family="Arial, sans-serif" font-size="16" text-anchor="middle" fill="white">Database</text>
  
  <!-- First Request Flow (Uncached) -->
  <!-- Client to Server -->
  <line x1="170" y1="140" x2="330" y2="140" stroke="#495057" stroke-width="2" marker-end="url(#arrowhead)" />
  <text x="250" y="130" font-family="Arial, sans-serif" font-size="14" text-anchor="middle" fill="#333">1. GET /articles/123</text>
  
  <!-- Server to Database -->
  <line x1="460" y1="140" x2="620" y2="140" stroke="#bd2130" stroke-width="2" marker-end="url(#arrowhead)" />
  <text x="540" y="130" font-family="Arial, sans-serif" font-size="14" text-anchor="middle" fill="#333">2. Fetch Data</text>
  
  <!-- Database to Server -->
  <line x1="620" y1="160" x2="460" y2="160" stroke="#bd2130" stroke-width="2" marker-end="url(#arrowhead)" />
  <text x="540" y="180" font-family="Arial, sans-serif" font-size="14" text-anchor="middle" fill="#333">3. Return Data</text>
  
  <!-- Server to Cache -->
  <line x1="400" y1="180" x2="400" y2="230" stroke="#1e7e34" stroke-width="2" marker-end="url(#arrowhead)" />
  <text x="460" y="210" font-family="Arial, sans-serif" font-size="14" text-anchor="middle" fill="#333">4. Store in Cache</text>
  
  <!-- Server to Client -->
  <line x1="330" y1="160" x2="170" y2="160" stroke="#0056b3" stroke-width="2" marker-end="url(#arrowhead)" />
  <text x="250" y="180" font-family="Arial, sans-serif" font-size="14" text-anchor="middle" fill="#333">5. Response</text>
  
  <!-- Second Request Flow (Cached) -->
  <!-- Client to Server -->
  <line x1="130" y1="180" x2="130" y2="360" stroke="#495057" stroke-width="2" />
  <line x1="130" y1="360" x2="330" y2="360" stroke="#495057" stroke-width="2" marker-end="url(#arrowhead)" />
  <text x="250" y="350" font-family="Arial, sans-serif" font-size="14" text-anchor="middle" fill="#333">6. GET /articles/123</text>
  
  <!-- Server to Cache -->
  <line x1="400" y1="300" x2="400" y2="350" stroke="#1e7e34" stroke-width="2" />
  <line x1="400" y1="350" x2="470" y2="350" stroke="#1e7e34" stroke-width="2" />
  <line x1="470" y1="350" x2="470" y2="320" stroke="#1e7e34" stroke-width="2" marker-end="url(#arrowhead)" />
  <text x="530" y="335" font-family="Arial, sans-serif" font-size="14" text-anchor="middle" fill="#333">7. Check Cache</text>
  
  <!-- Cache to Server -->
  <line x1="370" y1="320" x2="370" y2="350" stroke="#1e7e34" stroke-width="2" />
  <line x1="370" y1="350" x2="330" y2="350" stroke="#1e7e34" stroke-width="2" marker-end="url(#arrowhead)" />
  <text x="270" y="335" font-family="Arial, sans-serif" font-size="14" text-anchor="middle" fill="#333">8. Cached Data</text>
  
  <!-- Server to Client -->
  <line x1="330" y1="370" x2="130" y2="370" stroke="#0056b3" stroke-width="2" marker-end="url(#arrowhead)" />
  <text x="250" y="390" font-family="Arial, sans-serif" font-size="14" text-anchor="middle" fill="#333">9. Response (faster!)</text>
  
  <!-- Skipped Database Connection -->
  <line x1="540" y1="280" x2="690" y2="280" stroke="#bd2130" stroke-width="2" stroke-dasharray="5,5" />
  <text x="620" y="300" font-family="Arial, sans-serif" font-size="14" text-anchor="middle" fill="#333" font-style="italic">Database request avoided!</text>
  
  <!-- Legend -->
  <rect x="540" y="400" width="20" height="20" fill="#007bff" />
  <text x="570" y="415" font-family="Arial, sans-serif" font-size="14" fill="#333">API Server</text>
  
  <rect x="540" y="430" width="20" height="20" fill="#28a745" />
  <text x="570" y="445" font-family="Arial, sans-serif" font-size="14" fill="#333">Cache</text>
  
  <rect x="650" y="400" width="20" height="20" fill="#dc3545" />
  <text x="680" y="415" font-family="Arial, sans-serif" font-size="14" fill="#333">Database</text>
  
  <rect x="650" y="430" width="20" height="20" fill="#6c757d" />
  <text x="680" y="445" font-family="Arial, sans-serif" font-size="14" fill="#333">Client</text>
  
  <!-- Benefits Note -->
  <rect x="50" y="410" width="470" height="70" rx="10" ry="10" fill="#f8f8f8" stroke="#ced4da" stroke-width="2" />
  <text x="265" y="435" font-family="Arial, sans-serif" font-size="16" text-anchor="middle" fill="#333" font-weight="bold">Benefits of Caching:</text>
  <text x="265" y="460" font-family="Arial, sans-serif" font-size="14" text-anchor="middle" fill="#333">✓ Reduced database load  ✓ Faster response times  ✓ Improved scalability</text>
  
  <!-- Arrow marker definition -->
  <defs>
    <marker id="arrowhead" markerWidth="10" markerHeight="7" refX="9" refY="3.5" orient="auto">
      <polygon points="0 0, 10 3.5, 0 7" fill="#333" />
    </marker>
  </defs>
</svg> 