<?xml version="1.0" encoding="UTF-8" standalone="no"?>
<svg width="250" height="80" xmlns="http://www.w3.org/2000/svg">
  <rect width="100%" height="100%" fill="none"/>
  
  <!-- Swagger Logo -->
  <g transform="translate(20, 20)">
    <!-- Green Circle -->
    <circle cx="20" cy="20" r="20" fill="#85EA2D"/>
    
    <!-- White "S" Shape -->
    <path d="M12,17 C12,14 15,14 15,12 C15,10 12,10 10,12 L7,9 C11,5 20,5 20,12 C20,17 16,17 16,19.5 C16,22 20,22 23,20 L25,23 C20,27 12,26 12,20 C12,17 12,17 12,17 Z" fill="white"/>
    
    <!-- White Dot -->
    <circle cx="15" cy="27" r="3" fill="white"/>
    
    <!-- Swagger Text -->
    <text x="50" y="25" font-family="Arial, sans-serif" font-size="24" font-weight="bold" fill="#1E1E1E">Swagger</text>
  </g>
  
  <!-- Subtitle Text -->
  <text x="125" y="60" font-family="Arial, sans-serif" font-size="14" text-anchor="middle" fill="#666666">OpenAPI Specification</text>
</svg> 